<svg xmlns="http://www.w3.org/2000/svg" width="400" height="400" viewBox="0 0 410 210">
  <path fill="#d80303" d="M6.57 126L13.96 126L13.96 97.38C13.96 90.55 18.30 86.77 23.85 86.77C29.99 86.77 33.69 90.55 33.69 97.47L33.69 126L41.04 126L41.04 97.47C41.04 91.20 44.60 86.77 51.00 86.77C57.45 86.77 60.76 91.02 60.76 96.78L60.76 126L68.11 126L68.11 95.28C68.11 86.00 62.48 80.11 52.94 80.11C45.59 80.11 40.82 83.50 39.10 87.37L38.76 87.37C37.00 82.95 32.79 80.11 25.74 80.11C19.77 80.11 15.77 83.29 14.31 86.38L13.92 86.38L13.92 80.84L6.57 80.84ZM97.32 80.15C85.94 80.15 79.28 89.09 79.28 101.38L79.28 105.46C79.28 118.05 85.55 126.69 97.32 126.69C103.38 126.69 108.11 123.85 110.64 119.21L110.82 119.21L110.82 126L117.91 126L117.91 64.25L110.52 64.25L110.52 87.11L110.30 87.11C108.02 83.12 103.30 80.15 97.32 80.15ZM98.36 86.60C105.96 86.60 110.64 92.53 110.64 101.64L110.64 105.25C110.64 114.83 106.05 120.24 98.48 120.24C91.65 120.24 86.71 115.26 86.71 105.20L86.71 101.64C86.71 91.58 91.65 86.60 98.36 86.60Z"/>
  <path d="M156.41 120.37L156.62 120.37L156.62 126L163.71 126L163.71 94.85C163.71 85.35 156.71 80.11 147.08 80.11C136.17 80.11 130.80 85.87 130.32 93.77L137.29 93.77C137.71 89.26 141.02 86.30 146.82 86.30C152.93 86.30 156.36 89.56 156.36 95.49L156.36 100.09L144.46 100.09C134.11 100.13 128.61 105.12 128.61 113.02C128.61 121.32 134.62 126.73 143.34 126.73C150.00 126.73 154.13 124.02 156.41 120.37ZM145.32 120.59C140.59 120.59 136.17 118.09 136.17 112.77C136.17 108.68 138.83 105.76 145.02 105.76L156.36 105.76L156.36 111.00C156.36 116.63 151.64 120.59 145.32 120.59ZM174.63 93.77C174.63 101.94 181.54 104.52 189.96 106.23C196.28 107.48 201.31 108.47 201.31 113.58C201.31 117.41 198.17 120.67 191.25 120.67C185.24 120.67 181.71 117.96 181.07 113.84L173.85 113.84C173.85 121.96 180.77 126.73 190.70 126.73C201.31 126.73 208.57 121.66 208.57 112.68C208.57 103.87 201.44 101.59 192.97 100.09C187.82 99.14 181.84 98.07 181.84 93C181.84 88.53 185.71 86.17 191.08 86.17C198.13 86.17 200.28 90.21 200.54 93.64L207.41 93.64C207.41 86.17 201.95 80.11 191.34 80.11C182.66 80.11 174.63 84.23 174.63 93.77ZM221.93 80.84L215.83 80.84L215.83 87.03L221.89 87.03L221.89 113.37C221.89 122.26 224.08 126.39 234.78 126.39C236.33 126.39 237.88 126.21 238.52 126.09L238.52 120.16C237.92 120.24 237.36 120.24 236.63 120.24C231.09 120.24 229.28 118.87 229.28 113.45L229.28 87.03L238.22 87.03L238.22 80.84L229.28 80.84L229.28 69.58L221.93 69.58Z"/>
</svg>
