<svg height="300" viewBox="0 0 1012 300" width="1012" xmlns="http://www.w3.org/2000/svg">
  <style>
    .b {fill: #0d1117}
    .l {fill: #fff}
    @media (prefers-color-scheme: light) {
      .b {fill: #fff}
      .l {fill: #0d1117}
    }
  </style>
  <rect class="b" height="300" width="1012" x="0" y="0" />
  <path d="M448.18 171.78L448.18 149.14Q448.18 144.45 446.44 142.08Q444.70 139.70 441.24 139.70L441.24 139.70Q438.81 139.70 436.96 140.99Q435.12 142.28 434.47 144.45L434.47 144.45L434.06 144.45Q433.56 142.19 432.03 140.95Q430.49 139.70 428.23 139.70L428.23 139.70Q426.06 139.70 424.44 140.98Q422.81 142.25 422.20 144.45L422.20 144.45L421.79 144.45L421.79 140.23L418.30 140.23L418.30 171.78L421.90 171.78L421.90 150.66Q421.90 147.17 423.27 145.17Q424.63 143.16 427.00 143.16L427.00 143.16Q429.26 143.16 430.38 144.87Q431.51 146.59 431.51 149.99L431.51 149.99L431.51 171.78L435.12 171.78L435.12 150.66Q435.12 147.14 436.45 145.15Q437.78 143.16 440.10 143.16L440.10 143.16Q442.32 143.16 443.45 144.89Q444.58 146.62 444.58 150.01L444.58 150.01L444.58 171.78L448.18 171.78ZM468.92 172.31L468.92 172.31Q465.26 172.31 462.49 170.64Q459.73 168.97 458.17 165.97Q456.62 162.96 456.62 159.04L456.62 159.04L456.62 152.97Q456.62 149.02 458.17 146.03Q459.73 143.04 462.49 141.37Q465.26 139.70 468.92 139.70L468.92 139.70Q472.35 139.70 474.84 141.05Q477.33 142.40 478.45 144.89L478.45 144.89L478.97 144.89L478.97 127.66L482.81 127.66L482.81 171.78L479.15 171.78L479.15 167.24L478.62 167.24Q477.25 169.73 474.77 171.02Q472.29 172.31 468.92 172.31ZM469.77 168.88L469.77 168.88Q473.99 168.88 476.53 165.95Q479.06 163.02 479.06 158.13L479.06 158.13L479.06 153.91Q479.06 149.02 476.53 146.09Q473.99 143.16 469.77 143.16L469.77 143.16Q465.53 143.16 462.99 146.09Q460.46 149.02 460.46 153.91L460.46 153.91L460.46 158.13Q460.46 162.99 462.99 165.94Q465.53 168.88 469.77 168.88Z" fill="#d80303" />
  <path class="l" d="M504.64 172.34L504.64 172.34Q508.21 172.34 510.75 170.92Q513.28 169.50 514.39 166.83L514.39 166.83L514.80 166.83L514.80 171.81L518.50 171.81L518.50 150.13Q518.50 145.33 515.52 142.65Q512.55 139.97 507.19 139.97L507.19 139.97Q504.14 139.97 501.66 141.01Q499.19 142.05 497.62 143.86Q496.05 145.68 495.76 148.05L495.76 148.05L499.57 148.05Q500.24 145.77 502.22 144.54Q504.20 143.31 507.19 143.31L507.19 143.31Q510.82 143.31 512.72 145.11Q514.63 146.91 514.63 150.31L514.63 150.31L514.63 153.30L505.49 153.71Q500.27 153.94 497.42 156.33Q494.56 158.72 494.56 162.88L494.56 162.88Q494.56 167.15 497.33 169.75Q500.10 172.34 504.64 172.34ZM505.58 168.94L505.58 168.94Q502.29 168.94 500.40 167.31Q498.51 165.69 498.51 162.88L498.51 162.88Q498.51 157.19 505.75 156.87L505.75 156.87L514.63 156.49L514.63 160.88Q514.63 163.14 513.43 164.97Q512.23 166.80 510.17 167.87Q508.12 168.94 505.58 168.94ZM533.50 148.43L533.50 148.43Q533.50 154.85 541.87 156.81L541.87 156.81L546.53 157.92Q549.75 158.69 551.13 159.93Q552.51 161.18 552.51 163.34L552.51 163.34Q552.51 165.92 550.41 167.48Q548.32 169.03 544.77 169.03L544.77 169.03Q541.49 169.03 539.31 167.67Q537.13 166.30 536.51 163.87L536.51 163.87L532.53 163.87Q532.97 167.77 536.22 170.04Q539.47 172.31 544.60 172.31L544.60 172.31Q549.99 172.31 553.24 169.79Q556.49 167.27 556.49 163.11L556.49 163.11Q556.49 159.77 554.35 157.71Q552.22 155.64 547.67 154.56L547.67 154.56L543.40 153.56Q540.17 152.80 538.77 151.57Q537.36 150.34 537.36 148.29L537.36 148.29Q537.36 145.83 539.33 144.36Q541.29 142.90 544.57 142.90L544.57 142.90Q547.59 142.90 549.61 144.23Q551.63 145.56 552.13 147.88L552.13 147.88L555.91 147.88Q555.41 144.13 552.36 141.91Q549.32 139.70 544.69 139.70L544.69 139.70Q539.71 139.70 536.60 142.12Q533.50 144.54 533.50 148.43ZM580.49 132.03L576.65 132.03L576.65 140.23L568.15 140.23L568.15 143.48L576.65 143.48L576.65 162.67Q576.65 165.78 577.91 167.84Q579.17 169.91 581.69 170.93Q584.21 171.96 587.99 171.96L587.99 171.96Q589.36 171.96 591.18 171.84Q593.00 171.72 593.70 171.61L593.70 171.61L593.70 168.33Q592.94 168.44 591.39 168.50Q589.83 168.56 588.19 168.56L588.19 168.56Q584.44 168.56 582.46 167.02Q580.49 165.48 580.49 162.55L580.49 162.55L580.49 143.48L593.70 143.48L593.70 140.23L580.49 140.23L580.49 132.03Z" />
</svg>
