<svg xmlns="http://www.w3.org/2000/svg" width="224" height="207">
  <path fill="#d80303" d="M5.16 122L7.26 122L7.26 94.80C7.26 83.93 12.98 77.05 21.23 77.05C28.66 77.05 34.07 82.86 34.07 91.58L34.07 122L36.18 122L36.18 93.47C36.18 83.76 41.77 77.05 50.10 77.05C58.05 77.05 62.99 82.55 62.99 91.49L62.99 122L65.10 122L65.10 91.02C65.10 81.31 59.17 75.08 50.40 75.08C42.50 75.08 37.00 80.62 35.66 86.72L35.58 86.72C34.38 80.41 29.05 75.08 21.40 75.08C13.79 75.08 8.81 80.15 7.22 86.68L7.13 86.68L7.13 75.77L5.16 75.77ZM92.47 122.69C101.62 122.69 108.75 116.33 110.69 108.16L110.77 108.16L110.77 122L112.75 122L112.75 57.29L110.60 57.29L110.60 89.30L110.52 89.30C108.71 81.44 101.62 75.08 92.47 75.08C80.91 75.08 72.75 84.75 72.75 98.88C72.75 112.98 80.95 122.69 92.47 122.69ZM92.55 77.05C103.08 77.05 110.60 86.04 110.60 98.88C110.60 111.73 103.08 120.67 92.55 120.67C82.20 120.67 74.89 111.82 74.89 98.84C74.89 85.91 82.20 77.05 92.55 77.05ZM137.63"/>
  <path d="M137.63 120.71C129.98 120.71 124.35 116.07 124.35 109.71C124.35 103.05 129.42 99.14 138.88 98.41L155.25 97.16L155.25 104.98C155.25 113.62 147.34 120.71 137.63 120.71ZM137.50 122.69C145.75 122.69 152.97 118.09 155.20 111.47L155.25 111.47L155.25 122L157.35 122L157.35 90.98C157.35 81.18 151.21 75.08 141.28 75.08C131.53 75.08 124.87 80.45 123.88 89.21L125.90 89.21C127.10 81.48 132.64 77.05 141.28 77.05C150.00 77.05 155.25 82.34 155.25 91.11L155.25 95.27L138.53 96.56C127.79 97.42 122.20 101.85 122.20 109.71C122.20 117.32 128.52 122.69 137.50 122.69ZM166.16 87.28C166.16 93.21 170.07 96.43 177.80 98.28L185.07 99.96C193.27 101.89 196.54 104.86 196.54 110.14C196.54 116.50 189.96 120.71 181.84 120.71C173.51 120.71 167.32 115.43 166.76 108.94L164.61 108.94C165.09 116.46 171.96 122.69 181.89 122.69C191.64 122.69 198.69 117.57 198.69 110.01C198.69 103.74 194.86 100.26 185.71 98.02L178.54 96.30C171.53 94.67 168.27 92.22 168.27 87.24C168.27 81.18 174.54 77.05 181.71 77.05C190.01 77.05 195.12 82.13 195.89 89.17L197.96 89.17C197.14 80.54 191.00 75.08 181.71 75.08C173.16 75.08 166.16 80.06 166.16 87.28ZM208.83 63.39L208.83 75.77L201.95 75.77L201.95 77.70L208.83 77.70L208.83 111.95C208.83 119.16 211.58 122.04 217.81 122.04C217.94 122.04 221.03 122 221.12 122L221.12 120.02C221.07 120.02 217.98 120.07 217.94 120.07C213.04 120.07 210.93 117.79 210.93 111.90L210.93 77.70L220.30 77.70L220.30 75.77L210.93 75.77L210.93 63.39Z"/>
</svg>
